<?xml version="1.0" encoding="UTF-8" standalone="no"?>
<!-- Created with Inkscape (http://www.inkscape.org/) -->

<svg
   xmlns:dc="http://purl.org/dc/elements/1.1/"
   xmlns:cc="http://creativecommons.org/ns#"
   xmlns:rdf="http://www.w3.org/1999/02/22-rdf-syntax-ns#"
   xmlns:svg="http://www.w3.org/2000/svg"
   xmlns="http://www.w3.org/2000/svg"
   xmlns:sodipodi="http://sodipodi.sourceforge.net/DTD/sodipodi-0.dtd"
   xmlns:inkscape="http://www.inkscape.org/namespaces/inkscape"
   width="280"
   height="75"
   viewBox="0 0 280 75.000001"
   id="svg5305"
   version="1.1"
   inkscape:version="0.91 r13725"
   sodipodi:docname="MyLearn-Logo-with-Text.svg"
   inkscape:export-filename="C:\Users\dcipher\Desktop\MyLearn-Logo.png"
   inkscape:export-xdpi="900"
   inkscape:export-ydpi="900">
  <defs
     id="defs5307" />
  <sodipodi:namedview
     id="base"
     pagecolor="#ffffff"
     bordercolor="#666666"
     borderopacity="1.0"
     inkscape:pageopacity="0.0"
     inkscape:pageshadow="2"
     inkscape:zoom="2.6544541"
     inkscape:cx="57.695447"
     inkscape:cy="40.146206"
     inkscape:document-units="px"
     inkscape:current-layer="layer1"
     showgrid="false"
     units="px"
     inkscape:window-width="1600"
     inkscape:window-height="877"
     inkscape:window-x="-8"
     inkscape:window-y="-8"
     inkscape:window-maximized="1" />
  <metadata
     id="metadata5310">
    <rdf:RDF>
      <cc:Work
         rdf:about="">
        <dc:format>image/svg+xml</dc:format>
        <dc:type
           rdf:resource="http://purl.org/dc/dcmitype/StillImage" />
        <dc:title></dc:title>
      </cc:Work>
    </rdf:RDF>
  </metadata>
  <g
     inkscape:label="Capa 1"
     inkscape:groupmode="layer"
     id="layer1"
     transform="translate(0,-977.36216)">
    <g
       id="g5270"
       transform="matrix(0.5,-0.8660254,0.8660254,0.5,-650.27516,1122.4373)">
      <g
         id="g5242">
        <path
           style="fill:#00b9f1;fill-opacity:1;fill-rule:nonzero;stroke:none"
           d="m 425.81652,518.21629 0.01,0.0232 0.0181,-0.0232 -0.0262,0 -0.002,0 z m 3.78715,0 a 2.6622034,2.6901512 0 0 0 -2.66217,2.69013 2.6622034,2.6901512 0 0 0 0.0887,0.6688 l 1.50928,4.17376 4.04828,11.2036 a 3.3285791,3.2464887 0 0 0 0.0674,0.21906 l 0.0181,0.0498 0.0427,0.11783 0.0115,0.0349 a 3.3285791,3.2464887 0 0 0 0.12317,0.26221 3.3285791,3.2464887 0 0 0 0.16423,0.28213 3.3285791,3.2464887 0 0 0 0.17572,0.24063 3.3285791,3.2464887 0 0 0 0.0164,0.0232 3.3285791,3.2464887 0 0 0 0.005,0.003 3.3285791,3.2464887 0 0 0 0.21679,0.2423 3.3285791,3.2464887 0 0 0 0.24141,0.22072 3.3285791,3.2464887 0 0 0 0.26441,0.19748 3.3285791,3.2464887 0 0 0 0.28084,0.16927 3.3285791,3.2464887 0 0 0 0.003,0.002 3.3285791,3.2464887 0 0 0 0.27754,0.13276 3.3285791,3.2464887 0 0 0 0.0246,0.0117 3.3285791,3.2464887 0 0 0 0.202,0.073 3.3285791,3.2464887 0 0 0 0.1281,0.0432 3.3285791,3.2464887 0 0 0 0.13303,0.0349 3.3285791,3.2464887 0 0 0 0.18723,0.0447 3.3285791,3.2464887 0 0 0 0.14452,0.0216 3.3285791,3.2464887 0 0 0 0.18394,0.0265 3.3285791,3.2464887 0 0 0 0.26441,0.0133 3.3285791,3.2464887 0 0 0 0.0542,0.002 3.3285791,3.2464887 0 0 0 0.37937,-0.0232 3.3285791,3.2464887 0 0 0 0.60437,-0.12446 3.3285791,3.2464887 0 0 0 0.31039,-0.10953 3.3285791,3.2464887 0 0 0 0.002,-0.002 3.3285791,3.2464887 0 0 0 0.58138,-0.31034 3.3285791,3.2464887 0 0 0 0.002,-0.002 3.3285791,3.2464887 0 0 0 1.20873,-1.47535 l 0.0115,-0.0349 0.0427,-0.11616 0,-0.002 0.0181,-0.0498 a 3.3285791,3.2464887 0 0 0 0.0673,-0.21905 l 3.57366,-9.88924 1.9839,-5.48813 a 2.6622034,2.6901512 0 0 0 0.0887,-0.6688 2.6622034,2.6901512 0 0 0 -2.66218,-2.69012 2.6622034,2.6901512 0 0 0 -0.21843,0.0117 l -0.008,-0.0117 -5.1979,0 1.31385,10.25267 -2.07916,2.08274 -2.12514,-2.08274 1.34176,-10.25267 -0.11989,0 -5.10429,0 -0.01,0.0117 a 2.6622034,2.6901512 0 0 0 -0.21843,-0.0117 z m 16.18493,0 0.0181,0.0232 0.01,-0.0232 -0.0262,0 -0.002,0 z"
           id="path5127"
           inkscape:connector-curvature="0" />
        <ellipse
           style="fill:#00b9f1;fill-opacity:1"
           id="circle5119"
           cx="435.81683"
           cy="512.03754"
           rx="4.5694785"
           ry="4.6170845" />
      </g>
      <g
         transform="translate(13.293971,17.532034)"
         id="g5146">
        <path
           inkscape:connector-curvature="0"
           id="path5140"
           d="m 405.02296,555.02554 0.0175,-0.0348 0.0317,0.0348 -0.0458,0 -0.004,0 z m 6.62742,0 a 4.6587907,4.0351897 0 0 1 -4.65873,-4.03516 4.6587907,4.0351897 0 0 1 0.15522,-1.00319 l 2.6412,-6.26058 7.08439,-16.80525 a 5.8249319,4.8696882 0 0 1 0.11795,-0.32858 l 0.0317,-0.0747 0.0747,-0.17675 0.0201,-0.0523 a 5.8249319,4.8696882 0 0 1 0.21554,-0.39332 5.8249319,4.8696882 0 0 1 0.2874,-0.42319 5.8249319,4.8696882 0 0 1 0.3075,-0.36094 5.8249319,4.8696882 0 0 1 0.0287,-0.0348 5.8249319,4.8696882 0 0 1 0.009,-0.005 5.8249319,4.8696882 0 0 1 0.37938,-0.36345 5.8249319,4.8696882 0 0 1 0.42246,-0.33107 5.8249319,4.8696882 0 0 1 0.46271,-0.29622 5.8249319,4.8696882 0 0 1 0.49147,-0.2539 5.8249319,4.8696882 0 0 1 0.005,-0.003 5.8249319,4.8696882 0 0 1 0.48568,-0.19914 5.8249319,4.8696882 0 0 1 0.043,-0.0176 5.8249319,4.8696882 0 0 1 0.3535,-0.1095 5.8249319,4.8696882 0 0 1 0.22417,-0.0648 5.8249319,4.8696882 0 0 1 0.2328,-0.0524 5.8249319,4.8696882 0 0 1 0.32765,-0.067 5.8249319,4.8696882 0 0 1 0.2529,-0.0324 5.8249319,4.8696882 0 0 1 0.32189,-0.0397 5.8249319,4.8696882 0 0 1 0.46272,-0.0199 5.8249319,4.8696882 0 0 1 0.0948,-0.003 5.8249319,4.8696882 0 0 1 0.66389,0.0348 5.8249319,4.8696882 0 0 1 1.05764,0.18669 5.8249319,4.8696882 0 0 1 0.54317,0.16429 5.8249319,4.8696882 0 0 1 0.003,0.003 5.8249319,4.8696882 0 0 1 1.0174,0.46551 5.8249319,4.8696882 0 0 1 0.004,0.003 5.8249319,4.8696882 0 0 1 2.11525,2.21301 l 0.0201,0.0523 0.0747,0.17424 0,0.003 0.0317,0.0747 a 5.8249319,4.8696882 0 0 1 0.11778,0.32857 l 6.25381,14.83373 3.47178,8.23212 a 4.6587907,4.0351897 0 0 1 0.15522,1.00319 4.6587907,4.0351897 0 0 1 -4.65875,4.03514 4.6587907,4.0351897 0 0 1 -0.38224,-0.0176 l -0.014,0.0176 -9.0962,0 2.2992,-15.37886 -3.63848,-3.12408 -3.71894,3.12408 2.34805,15.37886 -0.20981,0 -8.93238,0 -0.0175,-0.0176 a 4.6587907,4.0351897 0 0 1 -0.38225,0.0176 z m 28.32323,0 0.0317,-0.0348 0.0175,0.0348 -0.0458,0 -0.003,0 z"
           style="fill:#d4cc26;fill-opacity:1;fill-rule:nonzero;stroke:none" />
        <circle
           cy="-565.21912"
           cx="422.52258"
           id="ellipse5142"
           style="fill:#d4cc26;fill-opacity:1"
           transform="scale(1,-1)"
           r="8" />
      </g>
      <g
         style="fill:#5e5549;fill-opacity:1"
         id="g5150"
         transform="matrix(0,-1,1,0,-106.17369,954.72566)">
        <path
           inkscape:connector-curvature="0"
           id="path5152"
           d="m 405.01871,515.63805 0.01,0.0232 0.0181,-0.0232 -0.0262,0 -0.002,0 z m 3.78715,0 a 2.6622034,2.6901512 0 0 0 -2.66217,2.69013 2.6622034,2.6901512 0 0 0 0.0887,0.6688 l 1.50928,4.17376 4.04828,11.2036 a 3.3285791,3.2464887 0 0 0 0.0674,0.21906 l 0.0181,0.0498 0.0427,0.11783 0.0115,0.0349 a 3.3285791,3.2464887 0 0 0 0.12317,0.26221 3.3285791,3.2464887 0 0 0 0.16423,0.28213 3.3285791,3.2464887 0 0 0 0.17572,0.24063 3.3285791,3.2464887 0 0 0 0.0164,0.0232 3.3285791,3.2464887 0 0 0 0.005,0.003 3.3285791,3.2464887 0 0 0 0.21679,0.2423 3.3285791,3.2464887 0 0 0 0.24141,0.22072 3.3285791,3.2464887 0 0 0 0.26441,0.19748 3.3285791,3.2464887 0 0 0 0.28084,0.16927 3.3285791,3.2464887 0 0 0 0.003,0.002 3.3285791,3.2464887 0 0 0 0.27754,0.13276 3.3285791,3.2464887 0 0 0 0.0246,0.0117 3.3285791,3.2464887 0 0 0 0.202,0.073 3.3285791,3.2464887 0 0 0 0.1281,0.0432 3.3285791,3.2464887 0 0 0 0.13303,0.0349 3.3285791,3.2464887 0 0 0 0.18723,0.0447 3.3285791,3.2464887 0 0 0 0.14452,0.0216 3.3285791,3.2464887 0 0 0 0.18394,0.0265 3.3285791,3.2464887 0 0 0 0.26441,0.0133 3.3285791,3.2464887 0 0 0 0.0542,0.002 3.3285791,3.2464887 0 0 0 0.37937,-0.0232 3.3285791,3.2464887 0 0 0 0.60437,-0.12446 3.3285791,3.2464887 0 0 0 0.31039,-0.10953 3.3285791,3.2464887 0 0 0 0.002,-0.002 3.3285791,3.2464887 0 0 0 0.58138,-0.31034 3.3285791,3.2464887 0 0 0 0.002,-0.002 3.3285791,3.2464887 0 0 0 1.20873,-1.47535 l 0.0115,-0.0349 0.0427,-0.11616 0,-0.002 0.0181,-0.0498 a 3.3285791,3.2464887 0 0 0 0.0673,-0.21905 l 3.57366,-9.88924 1.9839,-5.48813 a 2.6622034,2.6901512 0 0 0 0.0887,-0.6688 2.6622034,2.6901512 0 0 0 -2.66218,-2.69012 2.6622034,2.6901512 0 0 0 -0.21843,0.0117 l -0.008,-0.0117 -5.1979,0 1.31385,10.25267 -2.07916,2.08274 -2.12514,-2.08274 1.34176,-10.25267 -0.11989,0 -5.10429,0 -0.01,0.0117 a 2.6622034,2.6901512 0 0 0 -0.21843,-0.0117 z m 16.18493,0 0.0181,0.0232 0.01,-0.0232 -0.0262,0 -0.002,0 z"
           style="fill:#5e5549;fill-opacity:1;fill-rule:nonzero;stroke:none" />
        <ellipse
           ry="4.6170845"
           rx="4.5694785"
           cy="509.45932"
           cx="415.01901"
           id="ellipse5154"
           style="fill:#5e5549;fill-opacity:1" />
      </g>
      <g
         transform="matrix(0,-1,-1,0,977.80733,954.72561)"
         id="g5180"
         style="fill:#5e5549;fill-opacity:1">
        <path
           style="fill:#5e5549;fill-opacity:1;fill-rule:nonzero;stroke:none"
           d="m 405.01871,515.63805 0.01,0.0232 0.0181,-0.0232 -0.0262,0 -0.002,0 z m 3.78715,0 a 2.6622034,2.6901512 0 0 0 -2.66217,2.69013 2.6622034,2.6901512 0 0 0 0.0887,0.6688 l 1.50928,4.17376 4.04828,11.2036 a 3.3285791,3.2464887 0 0 0 0.0674,0.21906 l 0.0181,0.0498 0.0427,0.11783 0.0115,0.0349 a 3.3285791,3.2464887 0 0 0 0.12317,0.26221 3.3285791,3.2464887 0 0 0 0.16423,0.28213 3.3285791,3.2464887 0 0 0 0.17572,0.24063 3.3285791,3.2464887 0 0 0 0.0164,0.0232 3.3285791,3.2464887 0 0 0 0.005,0.003 3.3285791,3.2464887 0 0 0 0.21679,0.2423 3.3285791,3.2464887 0 0 0 0.24141,0.22072 3.3285791,3.2464887 0 0 0 0.26441,0.19748 3.3285791,3.2464887 0 0 0 0.28084,0.16927 3.3285791,3.2464887 0 0 0 0.003,0.002 3.3285791,3.2464887 0 0 0 0.27754,0.13276 3.3285791,3.2464887 0 0 0 0.0246,0.0117 3.3285791,3.2464887 0 0 0 0.202,0.073 3.3285791,3.2464887 0 0 0 0.1281,0.0432 3.3285791,3.2464887 0 0 0 0.13303,0.0349 3.3285791,3.2464887 0 0 0 0.18723,0.0447 3.3285791,3.2464887 0 0 0 0.14452,0.0216 3.3285791,3.2464887 0 0 0 0.18394,0.0265 3.3285791,3.2464887 0 0 0 0.26441,0.0133 3.3285791,3.2464887 0 0 0 0.0542,0.002 3.3285791,3.2464887 0 0 0 0.37937,-0.0232 3.3285791,3.2464887 0 0 0 0.60437,-0.12446 3.3285791,3.2464887 0 0 0 0.31039,-0.10953 3.3285791,3.2464887 0 0 0 0.002,-0.002 3.3285791,3.2464887 0 0 0 0.58138,-0.31034 3.3285791,3.2464887 0 0 0 0.002,-0.002 3.3285791,3.2464887 0 0 0 1.20873,-1.47535 l 0.0115,-0.0349 0.0427,-0.11616 0,-0.002 0.0181,-0.0498 a 3.3285791,3.2464887 0 0 0 0.0673,-0.21905 l 3.57366,-9.88924 1.9839,-5.48813 a 2.6622034,2.6901512 0 0 0 0.0887,-0.6688 2.6622034,2.6901512 0 0 0 -2.66218,-2.69012 2.6622034,2.6901512 0 0 0 -0.21843,0.0117 l -0.008,-0.0117 -5.1979,0 1.31385,10.25267 -2.07916,2.08274 -2.12514,-2.08274 1.34176,-10.25267 -0.11989,0 -5.10429,0 -0.01,0.0117 a 2.6622034,2.6901512 0 0 0 -0.21843,-0.0117 z m 16.18493,0 0.0181,0.0232 0.01,-0.0232 -0.0262,0 -0.002,0 z"
           id="path5182"
           inkscape:connector-curvature="0" />
        <ellipse
           style="fill:#5e5549;fill-opacity:1"
           id="ellipse5184"
           cx="415.01901"
           cy="509.45932"
           rx="4.5694785"
           ry="4.6170845" />
      </g>
    </g>
    <text
       xml:space="preserve"
       style="font-style:normal;font-weight:normal;font-size:40px;line-height:125%;font-family:sans-serif;letter-spacing:0px;word-spacing:0px;fill:#000000;fill-opacity:1;stroke:none;stroke-width:1px;stroke-linecap:butt;stroke-linejoin:miter;stroke-opacity:1"
       x="82.201454"
       y="1027.4354"
       id="text3346"
       sodipodi:linespacing="125%"><tspan
         sodipodi:role="line"
         id="tspan3348"
         x="82.201454"
         y="1027.4354"
         style="font-style:normal;font-variant:normal;font-weight:normal;font-stretch:normal;font-size:50px;font-family:Helvetica;-inkscape-font-specification:Helvetica">MyLearn</tspan></text>
  </g>
</svg>
